PathFileType	4	(X/Y/Z)	C:/Users/opensim2020/Desktop/walking_exp_matlab/subject06_walking13_straight_04.trc	
DataRate	CameraRate	NumFrames	NumMarkers	Units	OrigDataRate	OrigDataStartFrame	OrigNumFrames	
100.00	100.00	8	50	mm	100.00	3038	204	
Frame#	Time	LFHD			RFHD			LBHD			RBHD			C7			T10			CLAV			STRN			RBAK			LSHO			LUPA			LELB			LFRM			LWRA			LWRB			LFIN			RSHO			RUPA			RELB			RFRM			RWRA			RWRB			RFIN			LASI			RASI			LPSI			RPSI			LTHI			LKNE			LTIB			LANK			LHEE			LTOE			RTHI			RKNE			RTIB			RANK			RHEE			RTOE			*39			*40			*41			*42			*43			*44			*45			*46			*47			*48			*49			
		X1	Y1	Z1	X2	Y2	Z2	X3	Y3	Z3	X4	Y4	Z4	X5	Y5	Z5	X6	Y6	Z6	X7	Y7	Z7	X8	Y8	Z8	X9	Y9	Z9	X10	Y10	Z10	X11	Y11	Z11	X12	Y12	Z12	X13	Y13	Z13	X14	Y14	Z14	X15	Y15	Z15	X16	Y16	Z16	X17	Y17	Z17	X18	Y18	Z18	X19	Y19	Z19	X20	Y20	Z20	X21	Y21	Z21	X22	Y22	Z22	X23	Y23	Z23	X24	Y24	Z24	X25	Y25	Z25	X26	Y26	Z26	X27	Y27	Z27	X28	Y28	Z28	X29	Y29	Z29	X30	Y30	Z30	X31	Y31	Z31	X32	Y32	Z32	X33	Y33	Z33	X34	Y34	Z34	X35	Y35	Z35	X36	Y36	Z36	X37	Y37	Z37	X38	Y38	Z38	X39	Y39	Z39	X40	Y40	Z40	X41	Y41	Z41	X42	Y42	Z42	X43	Y43	Z43	X44	Y44	Z44	X45	Y45	Z45	X46	Y46	Z46	X47	Y47	Z47	X48	Y48	Z48	X49	Y49	Z49	X50	Y50	Z50	

179	1.780	1517.82690	-572.21277	1657.96216	1385.79333	-566.32147	1647.17358	1523.90405	-440.55341	1598.50647	1394.90723	-436.27347	1593.48792	1461.06311	-442.24530	1440.06091	1443.21802	-418.42905	1110.12756	1458.94202	-555.15479	1367.27234	1459.79126	-601.87836	1193.18848	1372.45190	-377.79593	1269.45435	1621.37231	-496.67511	1394.05798	1686.73987	-451.42905	1197.30310	1692.45313	-415.47607	1090.41711	1714.61096	-397.33606	941.26343	1675.12549	-427.31155	813.81427	1709.56653	-366.63452	826.23334	1710.12366	-381.51483	736.06842	1299.46594	-511.07816	1401.49878	1200.52747	-513.05353	1206.36279	1184.72766	-557.34503	1094.73096	1179.40417	-640.58173	1011.14142	1234.25085	-768.31848	949.79596	1189.50720	-735.11047	913.07880	1196.65015	-813.38751	886.58746	1548.40576	-605.39984	960.16534	1328.73413	-594.85315	958.86279	1529.43005	-443.87418	975.47638	1360.31726	-444.39697	979.97260	1625.16504	-608.01288	650.20599	1596.27856	-666.79712	499.67139	1599.08264	-705.66119	248.16943	1564.37439	-759.92932	81.36752	1519.82983	-726.03094	53.65396	1553.78503	-906.51855	93.52939	1288.84167	-512.28436	623.05713	1312.34595	-492.39615	497.37769	1320.93030	-364.71619	257.78992	1363.69714	-285.98111	88.08311	1406.82935	-238.40083	70.86900	1369.20190	-428.63708	40.23769	1463.05481	-467.76614	1692.75354																														 
180	1.790	1518.59680	-582.87335	1656.65857	1386.57861	-577.02979	1645.82471	1524.66003	-451.16501	1597.27625	1395.71497	-446.95935	1592.22437	1462.01233	-452.78854	1438.76770	1444.44873	-429.34927	1108.58972	1459.83289	-565.73846	1366.00574	1460.73560	-612.65198	1191.97339	1373.64355	-388.31427	1267.91162	1622.24243	-507.13513	1392.64453	1687.72913	-461.11212	1196.31128	1693.46240	-424.35022	1089.58569	1715.74658	-404.85043	940.66864	1676.43701	-433.69489	812.77618	1710.85693	-373.16272	825.93103	1711.28528	-387.05539	735.59985	1300.19678	-521.67719	1399.96484	1201.54846	-523.23322	1204.65503	1185.49951	-567.50208	1093.16284	1180.26355	-651.22064	1010.33942	1235.10583	-779.59534	950.56006	1190.67847	-746.59418	913.18384	1197.72437	-825.15692	887.66327	1549.55151	-616.61395	958.79120	1329.76892	-606.00879	957.68860	1530.82422	-455.10742	974.02759	1361.72827	-455.42166	978.63397	1625.95447	-619.38959	648.79529	1597.15979	-677.53900	498.67432	1599.94958	-717.52972	246.84198	1564.77539	-772.67426	80.31578	1520.47656	-738.74744	52.31771	1553.45520	-919.08789	93.71014	1289.61829	-522.32581	622.10693	1312.78638	-502.11044	496.48294	1320.67371	-369.94370	258.99680	1362.81555	-287.58398	90.84309	1405.86743	-239.59149	74.81741	1369.17725	-429.08081	40.16892	1463.80615	-478.46960	1691.47217																														 
181	1.800	1519.32849	-593.53516	1655.43616	1387.27856	-587.62482	1644.58862	1525.49231	-461.85699	1596.20862	1396.47009	-457.56033	1591.04956	1462.73596	-463.34665	1437.51587	1445.73291	-440.42880	1107.18079	1460.79907	-576.32513	1364.90234	1461.78931	-623.57190	1190.93567	1374.86353	-398.92035	1266.45117	1623.23071	-517.61694	1391.44946	1688.73926	-471.06784	1195.43860	1694.50293	-433.66028	1088.87769	1716.90320	-412.95889	940.14612	1677.85449	-440.84546	811.94513	1712.09875	-380.33221	825.66553	1712.61499	-393.39267	735.21136	1300.99097	-532.12439	1398.58215	1202.59460	-533.26666	1203.16357	1186.57031	-577.53101	1091.76941	1181.24524	-661.53308	1009.38696	1235.99536	-790.25629	950.66638	1191.73376	-757.48419	912.89886	1198.82385	-836.07184	888.04077	1550.75281	-628.00452	957.52844	1330.96411	-617.37866	956.58466	1532.32874	-466.38599	972.74738	1363.17456	-466.66895	977.45276	1626.67688	-631.05762	647.77325	1597.86621	-688.91443	498.05658	1600.88110	-728.28137	245.44093	1565.33435	-782.69946	78.77558	1521.17456	-748.63605	50.52958	1553.34363	-929.03821	92.47610	1290.35986	-532.76178	621.30304	1313.30945	-512.30035	495.59290	1320.37561	-375.59164	260.32373	1361.77722	-289.32611	93.98380	1404.39893	-240.96831	78.75380	1369.09460	-429.54688	40.09853	1464.57922	-489.19666	1690.31604																														 
182	1.810	1520.15234	-604.30469	1654.49695	1388.06384	-598.31476	1643.43652	1526.39148	-472.45514	1595.30835	1397.35083	-468.17505	1590.03271	1463.87231	-473.72415	1436.37256	1447.15186	-451.73398	1105.88501	1461.78638	-586.90656	1363.84509	1462.90356	-634.47632	1190.04858	1376.16956	-409.60205	1264.99170	1624.24731	-528.06390	1390.46338	1689.81042	-481.29626	1194.69189	1695.63940	-443.50418	1088.24377	1718.20569	-421.79190	939.78510	1679.34436	-448.81787	811.25775	1713.52673	-388.34387	825.48938	1714.00928	-400.52713	734.88025	1301.92126	-542.49927	1397.34033	1203.86597	-543.22290	1201.73828	1187.73022	-587.33130	1090.40479	1182.29370	-671.38782	1008.33282	1236.88916	-800.31573	950.26416	1192.86194	-767.72705	912.20172	1199.61450	-846.56805	887.85846	1552.02893	-639.60138	956.40948	1332.35168	-628.83496	955.59344	1533.73694	-478.18521	971.65350	1364.70544	-478.18976	976.36444	1627.16724	-643.04242	647.10272	1598.33459	-700.67609	497.49945	1601.73547	-737.83118	243.81091	1566.11609	-790.28839	76.62527	1522.21155	-755.75641	48.61108	1553.41248	-936.37408	89.43238	1291.26404	-543.50623	620.43640	1313.79602	-523.01703	494.61353	1320.11353	-381.88260	261.82822	1360.63599	-291.44937	97.49638	1403.00940	-242.51396	83.43660	1368.98230	-430.03821	40.04896	1465.30786	-499.89172	1689.36829																														 
183	1.820	1520.83008	-614.95123	1653.44141	1388.84290	-608.95087	1642.31030	1527.25305	-483.08179	1594.56311	1398.27148	-478.67361	1589.16406	1464.90491	-484.18399	1435.23132	1448.74719	-463.06369	1104.69348	1462.83997	-597.47467	1362.98096	1464.10474	-645.54407	1189.32532	1377.55347	-420.26151	1263.55701	1625.25159	-538.73309	1389.57556	1690.98010	-491.80075	1194.07227	1696.85010	-453.77518	1087.76782	1719.53870	-431.35965	939.44867	1680.92102	-457.58850	810.69543	1714.99280	-397.11029	825.33472	1715.61499	-408.72974	734.65759	1303.04272	-552.60742	1396.21716	1205.23035	-552.86957	1200.45117	1189.06506	-596.92450	1089.16675	1183.44434	-680.91394	1007.06519	1237.77478	-809.95740	949.24707	1193.95471	-777.28839	911.03558	1200.43250	-856.23486	886.82184	1553.31702	-651.51074	955.45398	1333.77612	-640.49139	954.76056	1535.25830	-490.04358	970.65125	1366.21667	-489.85718	975.47949	1627.13721	-655.56842	646.81927	1598.62207	-712.31183	496.57031	1602.60828	-746.36041	242.05669	1566.95801	-796.02527	74.11584	1523.49866	-760.48419	46.91750	1553.63257	-941.74152	84.87481	1292.22949	-554.66522	619.54053	1314.36658	-534.36926	493.56488	1320.00281	-388.52267	263.47794	1359.68079	-294.00552	101.44698	1401.66626	-244.24870	88.78521	1368.93152	-430.73685	40.10046	1466.06604	-510.55283	1688.51660																														 
184	1.830	1521.57227	-625.60236	1652.55139	1389.57593	-619.44159	1641.26965	1528.16821	-493.61957	1593.95679	1399.20056	-489.14890	1588.39160	1466.01978	-494.70197	1434.08191	1450.21069	-474.59357	1103.57544	1464.02100	-608.21838	1362.22595	1465.41675	-656.78387	1188.70386	1379.10669	-431.04327	1262.15723	1626.42383	-549.20227	1388.96887	1692.24023	-502.51517	1193.60840	1698.16785	-464.43716	1087.30994	1721.04810	-441.42877	939.21545	1682.60229	-467.15921	810.21631	1716.64026	-406.75549	825.32666	1717.28284	-417.84113	734.45532	1304.40259	-562.38751	1395.24573	1206.59668	-562.59882	1199.31714	1190.42236	-606.23712	1087.96582	1184.62659	-690.07056	1005.71777	1238.60815	-819.13550	947.64423	1194.89014	-786.26166	909.42804	1201.34534	-865.06122	885.13037	1554.66211	-663.64752	954.64655	1335.29895	-652.22308	953.96729	1536.77502	-502.12524	969.89496	1367.84497	-501.71753	974.74603	1627.12903	-668.01984	646.37408	1599.64807	-723.95831	495.62369	1603.35291	-753.93945	240.12178	1567.25916	-799.64795	70.95492	1523.71106	-763.29535	45.80312	1554.38123	-945.59601	77.79368	1293.27026	-566.44849	618.50824	1314.96118	-546.45947	492.43420	1319.97644	-395.70938	265.29987	1358.93518	-296.86884	105.86928	1400.54761	-246.55205	94.79851	1368.94873	-431.38034	40.07127	1466.84875	-521.28778	1687.77136																														 
185	1.840	1522.32019	-636.23065	1651.91821	1390.26575	-629.89203	1640.40015	1529.24219	-504.15723	1593.50867	1400.28711	-499.46048	1587.72266	1467.40625	-504.88141	1433.18115	1452.13196	-486.34186	1102.53381	1465.17639	-618.88904	1361.68518	1466.73206	-668.18988	1188.33118	1380.78516	-441.70648	1260.83496	1627.68640	-559.86139	1388.53772	1693.66992	-513.37201	1193.30688	1699.53503	-475.60501	1087.00293	1722.64966	-452.19046	938.92725	1684.43298	-477.48758	809.83875	1718.32068	-417.18057	825.06689	1719.05139	-427.80133	734.26343	1305.64917	-572.45508	1394.35559	1207.98340	-572.21198	1198.30151	1192.08154	-615.38892	1086.71033	1185.87915	-698.83557	1004.09363	1239.45496	-827.83099	945.45398	1195.84119	-794.71881	907.39813	1202.08008	-873.31714	882.71210	1555.98071	-675.90741	953.97699	1336.77356	-663.92999	953.32202	1538.60205	-514.30182	969.41394	1369.48975	-513.55109	974.17798	1627.73059	-680.12897	645.79047	1601.22937	-734.61102	494.55927	1602.89197	-760.93555	238.57690	1567.12170	-802.62958	69.58387	1522.85938	-764.71991	47.60596	1556.18530	-949.07202	67.67842	1294.29089	-578.52307	617.37134	1315.63171	-559.34259	491.14355	1320.16943	-403.48346	267.42407	1358.45154	-300.32776	110.88965	1400.13721	-249.73720	101.48818	1369.10193	-431.97803	40.08125	1467.68677	-531.96875	1687.15112																														 
186	1.850	1523.02551	-646.82428	1651.85132	1390.96191	-640.23224	1640.10571	1530.30359	-514.77606	1593.40686	1401.40015	-509.86230	1587.31250	1468.75439	-515.24927	1432.63330	1453.69629	-498.22174	1101.71179	1466.35034	-629.58160	1361.57898	1467.94727	-679.41339	1188.25391	1382.70911	-452.35580	1259.73682	1629.04663	-570.60425	1388.32068	1695.23157	-524.50177	1193.15308	1701.18542	-486.70169	1086.66528	1724.29187	-463.49252	938.67987	1686.17395	-488.79056	809.50134	1720.08350	-428.39014	824.91138	1720.93103	-438.86172	734.01660	1306.81750	-582.51172	1393.71448	1209.60547	-581.76007	1197.27173	1193.57947	-624.41193	1085.55994	1187.17322	-707.33521	1002.34442	1240.22656	-836.07031	942.74103	1196.72717	-802.48621	904.94305	1202.79724	-881.04681	879.41394	1557.18860	-688.13483	953.65417	1337.97327	-675.82745	952.87506	1540.33472	-526.44861	969.42694	1370.99377	-525.26721	973.71198	1629.11572	-691.30273	645.42731	1603.19055	-744.76392	494.22388	1602.73425	-768.26410	238.28702	1567.96191	-805.95862	69.28931	1523.40625	-767.41052	49.18608	1557.38257	-952.59686	60.92945	1295.32593	-591.21356	616.24133	1316.53943	-572.96704	489.77466	1320.82556	-412.13898	269.99362	1358.37769	-304.57346	116.45507	1400.02295	-253.87721	109.01621	1369.40552	-432.96277	40.15971	1468.50208	-542.49957	1686.89832																														 
